<svg id="Слой_1" data-name="Слой 1" xmlns="http://www.w3.org/2000/svg" viewBox="0 0 150 150"><defs><style>.cls-1,.cls-2{fill:none;stroke:#8baa28;stroke-linecap:round;stroke-width:6px;}.cls-1{stroke-miterlimit:10;}.cls-2{stroke-linejoin:round;}</style></defs><title>icons_milk</title><circle class="cls-1" cx="75" cy="75" r="31.96"/><path class="cls-2" d="M81.62,26.66h0a6.69,6.69,0,0,0,11.82,3.17h0c4.8-5.95,14.21-.51,11.46,6.61h0a6.7,6.7,0,0,0,8.66,8.66h0c7.12-2.75,12.56,6.66,6.61,11.46h0a6.69,6.69,0,0,0,3.17,11.82h0c7.55,1.19,7.55,12.05,0,13.24h0a6.69,6.69,0,0,0-3.17,11.82h0c6,4.8.51,14.21-6.61,11.46h0a6.7,6.7,0,0,0-8.66,8.66h0c2.75,7.12-6.66,12.56-11.46,6.61h0a6.69,6.69,0,0,0-11.82,3.17h0c-1.19,7.55-12.05,7.55-13.24,0h0a6.69,6.69,0,0,0-11.82-3.17h0c-4.8,6-14.21.51-11.46-6.61h0a6.7,6.7,0,0,0-8.66-8.66h0c-7.12,2.75-12.56-6.66-6.61-11.46h0a6.69,6.69,0,0,0-3.17-11.82h0c-7.55-1.19-7.55-12.05,0-13.24h0a6.69,6.69,0,0,0,3.17-11.82h0c-5.95-4.8-.51-14.21,6.61-11.46h0a6.7,6.7,0,0,0,8.66-8.66h0c-2.75-7.12,6.66-12.56,11.46-6.61h0a6.69,6.69,0,0,0,11.82-3.17h0C69.57,19.11,80.43,19.11,81.62,26.66Z"/></svg>