<svg id="Слой_1" data-name="Слой 1" xmlns="http://www.w3.org/2000/svg" viewBox="0 0 150 150"><defs><style>.cls-1{fill:none;stroke:#8baa28;stroke-linecap:round;stroke-linejoin:round;stroke-width:6px;}</style></defs><title>icons_milk</title><path class="cls-1" d="M125.5,62.33C125.5,90.22,102.89,110,75,110S24.5,90.22,24.5,62.33"/><path class="cls-1" d="M115.54,52.71c6.26,2,10,4.41,10,7.06,0,6.53-22.61,11.83-50.5,11.83S24.5,66.3,24.5,59.77,47.11,47.94,75,47.94a200.54,200.54,0,0,1,20.67,1"/><path class="cls-1" d="M113.05,51.73c8.35,2.11,13.45,4.94,13.45,8,0,6.53-22.61,11.83-50.5,11.83S23.5,66.3,23.5,59.77,48.11,47.94,76,47.94a195.15,195.15,0,0,1,23.61,1.37"/><path class="cls-1" d="M102.74,103.16V114c0,3.91-2.74,7-7.11,8.11,0,0-7.12,2.37-21.34,2.37S53,122.12,53,122.12c-4-1.12-7.11-4.2-7.11-8.11V102.16"/><path class="cls-1" d="M93.93,70.6l5.56-15L103.73,36c2.76-6.36,7.42-10.52,10.35-9.25l4.26,1.86c2.93,1.27,3.07,7.51.31,13.87,0,0-10.67,17.5-16.08,27.17"/><path class="cls-1" d="M72.5,71.6c27.89,0,52.5-5.3,52.5-11.83"/></svg>