<svg id="Слой_1" data-name="Слой 1" xmlns="http://www.w3.org/2000/svg" viewBox="0 0 150 150"><defs><style>.cls-1{fill:none;stroke:#8baa28;stroke-linecap:round;stroke-linejoin:round;stroke-width:6px;}</style></defs><title>icons_milk</title><circle class="cls-1" cx="75" cy="75" r="54"/><circle class="cls-1" cx="75" cy="75" r="1.8"/><line class="cls-1" x1="75" y1="41.5" x2="75" y2="74.5"/><line class="cls-1" x1="79" y1="75" x2="98" y2="75"/><line class="cls-1" x1="75" y1="22" x2="75" y2="29"/><line class="cls-1" x1="75" y1="121" x2="75" y2="128"/><line class="cls-1" x1="128" y1="75.06" x2="121" y2="75.06"/><line class="cls-1" x1="29" y1="74.94" x2="22" y2="74.94"/><line class="cls-1" x1="29.69" y1="101.5" x2="35.68" y2="97.87"/><line class="cls-1" x1="114.32" y1="50.13" x2="120.31" y2="46.5"/><line class="cls-1" x1="120.31" y1="101.5" x2="114.32" y2="97.87"/><line class="cls-1" x1="35.68" y1="50.13" x2="29.69" y2="46.5"/><line class="cls-1" x1="49.35" y1="120.38" x2="52.74" y2="114.26"/><line class="cls-1" x1="97.26" y1="33.74" x2="100.65" y2="27.62"/><line class="cls-1" x1="100.65" y1="120.38" x2="97.26" y2="114.26"/><line class="cls-1" x1="52.74" y1="33.74" x2="49.35" y2="27.62"/></svg>