<svg id="Слой_1" data-name="Слой 1" xmlns="http://www.w3.org/2000/svg" viewBox="0 0 150 150"><defs><style>.cls-1{fill:none;stroke:#8baa28;stroke-linecap:round;stroke-linejoin:round;stroke-width:6px;}</style></defs><title>icons_milk</title><rect class="cls-1" x="46.34" y="54.28" width="57.65" height="74.47" rx="7.21" ry="7.21"/><rect class="cls-1" x="45.74" y="35.06" width="58.85" height="19.22" rx="2.4" ry="2.4"/><polygon class="cls-1" points="87.18 33.26 63.15 33.26 67.77 21.25 82.56 21.25 87.18 33.26"/><path class="cls-1" d="M106.39,69.9h5.89A9.72,9.72,0,0,1,122,79.62v19a9.72,9.72,0,0,1-9.72,9.72h-5.89a2.4,2.4,0,0,1-2.4-2.4V72.3A2.4,2.4,0,0,1,106.39,69.9Z"/><path class="cls-1" d="M30.39,69.9H36.3A9.71,9.71,0,0,1,46,79.61V98.54a9.71,9.71,0,0,1-9.71,9.71H30.39a2.4,2.4,0,0,1-2.4-2.4V72.29a2.4,2.4,0,0,1,2.4-2.4Z" transform="translate(74 178.15) rotate(-180)"/><circle class="cls-1" cx="75.16" cy="89.11" r="1.8"/><path class="cls-1" d="M78.89,77.28h0A3.86,3.86,0,0,0,83.55,80h0a3.87,3.87,0,0,1,3.72,6.45h0a3.88,3.88,0,0,0,0,5.39h0a3.87,3.87,0,0,1-3.72,6.44h0a3.87,3.87,0,0,0-4.66,2.7h0a3.88,3.88,0,0,1-7.45,0h0a3.88,3.88,0,0,0-4.66-2.7h0a3.87,3.87,0,0,1-3.72-6.44h0a3.88,3.88,0,0,0,0-5.39h0A3.87,3.87,0,0,1,66.78,80h0a3.86,3.86,0,0,0,4.66-2.69h0A3.87,3.87,0,0,1,78.89,77.28Z"/></svg>