<?xml version="1.0" encoding="utf-8"?>
<!-- Generator: Adobe Illustrator 22.1.0, SVG Export Plug-In . SVG Version: 6.00 Build 0)  -->
<svg version="1.1" id="Слой_1" xmlns="http://www.w3.org/2000/svg" xmlns:xlink="http://www.w3.org/1999/xlink" x="0px" y="0px"
	 viewBox="0 0 150 150" style="enable-background:new 0 0 150 150;" xml:space="preserve">
<style type="text/css">
	.st0{fill:none;stroke:#8BAA28;stroke-width:6;stroke-linecap:round;stroke-miterlimit:10;}
	.st1{fill:none;stroke:#8BAA28;stroke-width:6;stroke-linecap:round;stroke-linejoin:round;stroke-miterlimit:10;}
	.st2{fill:none;stroke:#8BAA28;stroke-width:6.7857;stroke-linecap:round;stroke-linejoin:round;stroke-miterlimit:10;}
	.st3{fill:none;stroke:#8BAA28;stroke-width:7.6641;stroke-linecap:round;stroke-linejoin:round;stroke-miterlimit:10;}
	.st4{fill:none;stroke:#8BAA28;stroke-width:7.9742;stroke-linecap:round;stroke-linejoin:round;stroke-miterlimit:10;}
	.st5{fill:none;stroke:#8BAA28;stroke-width:7.3851;stroke-linecap:round;stroke-linejoin:round;stroke-miterlimit:10;}
</style>
<g>
	<path class="st5" d="M112.4,125.7c-49.3,0-88.6-30.7-88.6-80"/>
	<path class="st5" d="M23.5,45.2c-0.4-10-0.1-13.3,5.7-16.6l4.5-2.6c5.8-3.3,13.3-1.3,16.6,4.4l10.5,18.3c3.3,5.8,1.3,13.3-4.4,16.6
		l-4.5,3.6"/>
	<path class="st5" d="M81.7,97.7l5.4-8c3.8-5.5,11.4-6.9,16.9-3.1l17.4,12c5.5,3.8,6.9,11.4,3.1,16.9c0,0-4.8,10.1-12.1,10.1"/>
	<path class="st5" d="M51.4,69.6c0,0,7.2,22.2,29.3,28.3"/>
</g>
</svg>
