<svg id="Слой_1" data-name="Слой 1" xmlns="http://www.w3.org/2000/svg" viewBox="0 0 150 150"><defs><style>.cls-1{fill:none;stroke:#8baa28;stroke-linecap:round;stroke-miterlimit:10;stroke-width:6px;}</style></defs><title>icons_milk</title><path class="cls-1" d="M46.91,54.12s36.32,26.87,33,76.62c0-1.18,1.18-48.33,21.21-55.4"/><line class="cls-1" x1="51.63" y1="130.74" x2="109.38" y2="130.74"/><path class="cls-1" d="M64.44,36.11C75,50.17,72,62.87,62.07,70.29S39.14,77,28.6,63c-7.91-10.56-8.14-31.9-6-39.54a5.73,5.73,0,0,1,5.57-4.17C36.1,19.35,56.52,25.55,64.44,36.11Z"/><path class="cls-1" d="M87.53,53c-9.28,14-5.72,25.93,4.13,32.46s22.23,5.18,31.51-8.8c7-10.5,6-30.87,3.55-38A5.46,5.46,0,0,0,121.19,35C113.64,35.48,94.5,42.51,87.53,53Z"/></svg>