<?xml version="1.0" encoding="utf-8"?>
<!-- Generator: Adobe Illustrator 22.1.0, SVG Export Plug-In . SVG Version: 6.00 Build 0)  -->
<svg version="1.1" id="Слой_1" xmlns="http://www.w3.org/2000/svg" xmlns:xlink="http://www.w3.org/1999/xlink" x="0px" y="0px"
	 viewBox="0 0 300 69" style="enable-background:new 0 0 300 69;" xml:space="preserve">
<style type="text/css">
	.st0{enable-background:new    ;}
	.st1{fill:#C7811E;}
	.st2{fill:#495057;}
	.st3{fill:#C7811E;stroke:#495057;stroke-width:2;stroke-miterlimit:10;}
</style>
<g>
	<g class="st0">
		<path class="st1" d="M11.6,17.9H6.9v10.6H2.3V3.3h4.6v10.5h4.8L19,3.3h5l-8.6,12.2l8.9,13H19L11.6,17.9z"/>
		<path class="st1" d="M40.8,11.1c1.5,1.4,2.2,3.4,2.2,6.1v11.3h-4.2v-2.3c-0.6,0.8-1.3,1.5-2.4,1.9c-1,0.4-2.2,0.7-3.7,0.7
			S30.1,28.5,29,28c-1.1-0.5-1.9-1.2-2.5-2.1c-0.6-0.9-0.9-1.9-0.9-3c0-1.7,0.6-3.1,1.9-4.2c1.3-1,3.3-1.6,6.1-1.6h5V17
			c0-1.3-0.4-2.4-1.2-3.1c-0.8-0.7-2-1.1-3.6-1.1c-1.1,0-2.1,0.2-3.2,0.5c-1,0.3-1.9,0.8-2.6,1.4l-1.8-3.3c1-0.8,2.2-1.4,3.6-1.8
			c1.4-0.4,2.9-0.6,4.5-0.6C37.2,9.1,39.3,9.7,40.8,11.1z M36.7,24.7c0.9-0.5,1.5-1.3,1.9-2.2v-2.2h-4.6c-2.6,0-3.9,0.9-3.9,2.6
			c0,0.8,0.3,1.5,1,1.9c0.6,0.5,1.5,0.7,2.7,0.7C34.9,25.5,35.9,25.2,36.7,24.7z"/>
		<path class="st1" d="M64.3,10.3c1.5,0.8,2.6,2,3.5,3.5c0.8,1.5,1.3,3.2,1.3,5.1c0,1.9-0.4,3.7-1.3,5.2c-0.8,1.5-2,2.7-3.5,3.5
			c-1.5,0.8-3.2,1.2-5,1.2c-2.6,0-4.6-0.9-6.2-2.6v9.3h-4.5V9.3h4.3v2.5c0.7-0.9,1.7-1.6,2.8-2.1c1.1-0.5,2.3-0.7,3.6-0.7
			C61.2,9.1,62.9,9.5,64.3,10.3z M62.9,23.2c1.1-1.1,1.6-2.6,1.6-4.4c0-1.8-0.5-3.3-1.6-4.4c-1.1-1.1-2.4-1.7-4.1-1.7
			c-1.1,0-2.1,0.2-2.9,0.7c-0.9,0.5-1.5,1.2-2.1,2.1c-0.5,0.9-0.8,2-0.8,3.2c0,1.2,0.3,2.3,0.8,3.2c0.5,0.9,1.2,1.6,2.1,2.1
			c0.9,0.5,1.8,0.7,2.9,0.7C60.5,24.9,61.8,24.3,62.9,23.2z"/>
		<path class="st1" d="M88.3,13.1H78v15.4h-4.5V9.3h14.8V13.1z"/>
		<path class="st1" d="M94.1,27.5c-1.6-0.8-2.8-2-3.7-3.5c-0.9-1.5-1.3-3.2-1.3-5.1c0-1.9,0.4-3.6,1.3-5.1c0.9-1.5,2.1-2.7,3.7-3.5
			c1.6-0.8,3.3-1.3,5.3-1.3c2,0,3.7,0.4,5.3,1.3s2.8,2,3.7,3.5c0.9,1.5,1.3,3.2,1.3,5.1c0,1.9-0.4,3.6-1.3,5.1
			c-0.9,1.5-2.1,2.7-3.7,3.5s-3.3,1.3-5.3,1.3C97.4,28.8,95.6,28.3,94.1,27.5z M103.4,23.2c1.1-1.1,1.6-2.6,1.6-4.4
			c0-1.8-0.5-3.3-1.6-4.4c-1.1-1.1-2.4-1.7-4.1-1.7c-1.7,0-3,0.6-4.1,1.7s-1.6,2.6-1.6,4.4c0,1.8,0.5,3.3,1.6,4.4
			c1.1,1.1,2.4,1.7,4.1,1.7C101,24.9,102.3,24.3,103.4,23.2z"/>
		<path class="st1" d="M132.4,9.3v19.2H128V13.1h-9.5v15.4H114V9.3H132.4z"/>
		<path class="st1" d="M141.8,27.5c-1.6-0.8-2.8-2-3.7-3.5c-0.9-1.5-1.3-3.2-1.3-5.1c0-1.9,0.4-3.6,1.3-5.1c0.9-1.5,2.1-2.7,3.7-3.5
			c1.6-0.8,3.3-1.3,5.3-1.3c2,0,3.7,0.4,5.3,1.3c1.6,0.8,2.8,2,3.7,3.5c0.9,1.5,1.3,3.2,1.3,5.1c0,1.9-0.4,3.6-1.3,5.1
			s-2.1,2.7-3.7,3.5c-1.6,0.8-3.3,1.3-5.3,1.3C145.1,28.8,143.4,28.3,141.8,27.5z M151.2,23.2c1.1-1.1,1.6-2.6,1.6-4.4
			c0-1.8-0.5-3.3-1.6-4.4c-1.1-1.1-2.4-1.7-4.1-1.7c-1.7,0-3,0.6-4.1,1.7s-1.6,2.6-1.6,4.4c0,1.8,0.5,3.3,1.6,4.4
			c1.1,1.1,2.4,1.7,4.1,1.7C148.7,24.9,150.1,24.3,151.2,23.2z"/>
		<path class="st1" d="M179,9.3v19.2h-4.5V13.1h-7.2l-0.2,3.8c-0.1,2.5-0.4,4.7-0.7,6.4c-0.3,1.7-0.9,3.1-1.8,4.1s-2,1.5-3.4,1.5
			c-0.7,0-1.5-0.1-2.5-0.4l0.2-3.8c0.3,0.1,0.6,0.1,0.9,0.1c0.9,0,1.6-0.4,2.1-1.1s0.7-1.6,0.9-2.6c0.1-1,0.2-2.5,0.3-4.4l0.3-7.4
			H179z"/>
		<path class="st1" d="M200.3,17.3c1.3,1.1,2,2.7,2,4.7c0,2.1-0.7,3.7-2.2,4.9c-1.4,1.2-3.5,1.7-6.1,1.7l-9,0V9.3h4.5v6.3l5.1,0
			C197.1,15.6,199,16.2,200.3,17.3z M196.7,24.4c0.7-0.6,1-1.4,1-2.5c0-1.1-0.3-1.9-1-2.4s-1.7-0.8-3.1-0.8l-4.1,0v6.5l4.1,0
			C195,25.2,196,25,196.7,24.4z"/>
		<path class="st1" d="M209.6,27.5c-1.6-0.8-2.8-2-3.7-3.5s-1.3-3.2-1.3-5.1c0-1.9,0.4-3.6,1.3-5.1c0.9-1.5,2.1-2.7,3.7-3.5
			c1.6-0.8,3.4-1.3,5.4-1.3c1.9,0,3.6,0.4,5,1.2c1.4,0.8,2.5,1.9,3.2,3.3l-3.5,2c-0.6-0.9-1.2-1.6-2.1-2c-0.8-0.4-1.7-0.7-2.7-0.7
			c-1.7,0-3.1,0.5-4.2,1.6c-1.1,1.1-1.7,2.6-1.7,4.4c0,1.8,0.5,3.3,1.6,4.4c1.1,1.1,2.5,1.6,4.2,1.6c1,0,1.9-0.2,2.7-0.7
			s1.5-1.1,2.1-2l3.5,2c-0.7,1.4-1.8,2.6-3.3,3.3c-1.4,0.8-3.1,1.2-5,1.2C213,28.8,211.2,28.3,209.6,27.5z"/>
		<path class="st1" d="M235.1,20.8h-3.5v7.7h-4.5V9.3h4.5v7.8h3.6l5.7-7.8h4.8l-7,9.3l7.5,10h-5.3L235.1,20.8z"/>
		<path class="st1" d="M249.4,9.3h4.5v12.7l10.6-12.7h4.1v19.2h-4.5V15.8l-10.6,12.7h-4.1V9.3z"/>
		<path class="st1" d="M274.7,9.3h4.5v12.7l10.6-12.7h4.1v19.2h-4.5V15.8l-10.6,12.7h-4.1V9.3z M279.5,5.7c-1-0.9-1.5-2.2-1.6-3.9h3
			c0,0.9,0.3,1.5,0.8,2.1c0.5,0.5,1.2,0.8,2.2,0.8c0.9,0,1.6-0.3,2.2-0.8c0.5-0.5,0.8-1.2,0.8-2.1h3.1c0,1.7-0.6,3-1.6,3.9
			c-1,0.9-2.5,1.3-4.5,1.3S280.6,6.6,279.5,5.7z"/>
	</g>
	<g class="st0">
		<path class="st2" d="M17.1,52.8v12.7H15v-9.3l-4.8,7.8h-1l-4.7-7.9v9.3H2.4V52.8h2.4l5,8.6l5.1-8.6H17.1z"/>
		<path class="st2" d="M25.6,64.8c-1-0.6-1.8-1.3-2.4-2.3c-0.6-1-0.9-2.1-0.9-3.3s0.3-2.4,0.9-3.3c0.6-1,1.4-1.8,2.4-2.3
			c1-0.6,2.1-0.8,3.4-0.8c1.3,0,2.4,0.3,3.4,0.8c1,0.6,1.8,1.3,2.4,2.3c0.6,1,0.9,2.1,0.9,3.3s-0.3,2.4-0.9,3.3
			c-0.6,1-1.4,1.8-2.4,2.3c-1,0.6-2.1,0.8-3.4,0.8C27.7,65.6,26.6,65.4,25.6,64.8z M31.2,63.1c0.6-0.4,1.2-0.9,1.5-1.6
			c0.4-0.7,0.6-1.5,0.6-2.3c0-0.9-0.2-1.7-0.6-2.3c-0.4-0.7-0.9-1.2-1.5-1.6c-0.6-0.4-1.4-0.6-2.2-0.6c-0.8,0-1.5,0.2-2.2,0.6
			c-0.6,0.4-1.2,0.9-1.5,1.6c-0.4,0.7-0.6,1.5-0.6,2.3c0,0.9,0.2,1.7,0.6,2.3c0.4,0.7,0.9,1.2,1.5,1.6s1.4,0.6,2.2,0.6
			C29.8,63.6,30.5,63.4,31.2,63.1z"/>
		<path class="st2" d="M51.7,52.8v12.7h-2.3V54.8H44l-0.1,2.8c-0.1,1.7-0.2,3.1-0.5,4.3s-0.6,2.1-1.1,2.7s-1.2,1-2.1,1
			c-0.4,0-0.9-0.1-1.4-0.2l0.1-1.9c0.2,0,0.4,0.1,0.6,0.1c0.6,0,1.1-0.3,1.4-0.8c0.3-0.6,0.5-1.2,0.6-2c0.1-0.8,0.2-1.9,0.3-3.3
			l0.2-4.7H51.7z"/>
		<path class="st2" d="M60.2,64.8c-1-0.6-1.8-1.3-2.4-2.3c-0.6-1-0.9-2.1-0.9-3.3s0.3-2.4,0.9-3.3c0.6-1,1.4-1.8,2.4-2.3
			c1-0.6,2.1-0.8,3.4-0.8c1.3,0,2.4,0.3,3.4,0.8c1,0.6,1.8,1.3,2.4,2.3c0.6,1,0.9,2.1,0.9,3.3s-0.3,2.4-0.9,3.3
			c-0.6,1-1.4,1.8-2.4,2.3c-1,0.6-2.1,0.8-3.4,0.8C62.4,65.6,61.2,65.4,60.2,64.8z M65.8,63.1c0.6-0.4,1.2-0.9,1.5-1.6
			c0.4-0.7,0.6-1.5,0.6-2.3c0-0.9-0.2-1.7-0.6-2.3c-0.4-0.7-0.9-1.2-1.5-1.6c-0.6-0.4-1.4-0.6-2.2-0.6c-0.8,0-1.5,0.2-2.2,0.6
			c-0.6,0.4-1.2,0.9-1.5,1.6c-0.4,0.7-0.6,1.5-0.6,2.3c0,0.9,0.2,1.7,0.6,2.3c0.4,0.7,0.9,1.2,1.5,1.6s1.4,0.6,2.2,0.6
			C64.5,63.6,65.2,63.4,65.8,63.1z"/>
		<path class="st2" d="M85.7,52.8v12.7h-2.3v-5.1c-1.4,0.6-2.7,1-4.1,1c-1.6,0-2.8-0.4-3.7-1.1c-0.9-0.7-1.3-1.8-1.3-3.3v-4.1h2.3v4
			c0,0.9,0.3,1.5,0.8,2c0.6,0.4,1.3,0.7,2.3,0.7c1.1,0,2.3-0.3,3.6-0.8v-5.8H85.7z"/>
		<path class="st2" d="M92.2,52.8h2.3v5.4h7.2v-5.4h2.3v12.7h-2.3v-5.3h-7.2v5.3h-2.3V52.8z"/>
		<path class="st2" d="M119.9,58.2c0.8,0.7,1.3,1.7,1.3,3c0,1.4-0.5,2.4-1.4,3.2c-0.9,0.7-2.2,1.1-3.9,1.1l-5.4,0V52.8h2.3v4.3
			l3.4,0C117.9,57.1,119.1,57.5,119.9,58.2z M118.1,63.1c0.5-0.4,0.8-1.1,0.8-1.9c0-0.8-0.3-1.4-0.8-1.8c-0.5-0.4-1.3-0.6-2.4-0.6
			l-2.9,0v5l2.9,0C116.7,63.8,117.5,63.6,118.1,63.1z M123.1,52.8h2.3v12.7h-2.3V52.8z"/>
		<path class="st2" d="M131.9,52.8h2.3V62l7.8-9.3h2.1v12.7h-2.3v-9.3l-7.8,9.3h-2.1V52.8z M135.1,50.3c-0.7-0.6-1-1.4-1-2.5h1.6
			c0,0.6,0.2,1.1,0.6,1.4c0.4,0.4,0.9,0.5,1.6,0.5c0.7,0,1.2-0.2,1.6-0.5c0.4-0.4,0.6-0.8,0.6-1.4h1.6c0,1.1-0.4,1.9-1,2.5
			c-0.7,0.6-1.6,0.9-2.8,0.9C136.6,51.1,135.7,50.8,135.1,50.3z"/>
		<path class="st2" d="M163.9,60.1h-2.6v5.4H159V52.8h2.3v5.4h2.7l4.1-5.4h2.5l-4.8,6.1l5.2,6.6h-2.7L163.9,60.1z"/>
		<path class="st2" d="M176.9,64.8c-1-0.6-1.8-1.3-2.4-2.3c-0.6-1-0.9-2.1-0.9-3.3s0.3-2.4,0.9-3.3c0.6-1,1.4-1.8,2.4-2.3
			c1-0.6,2.1-0.8,3.4-0.8c1.3,0,2.4,0.3,3.4,0.8c1,0.6,1.8,1.3,2.4,2.3c0.6,1,0.9,2.1,0.9,3.3s-0.3,2.4-0.9,3.3
			c-0.6,1-1.4,1.8-2.4,2.3c-1,0.6-2.1,0.8-3.4,0.8C179.1,65.6,177.9,65.4,176.9,64.8z M182.5,63.1c0.6-0.4,1.2-0.9,1.5-1.6
			c0.4-0.7,0.6-1.5,0.6-2.3c0-0.9-0.2-1.7-0.6-2.3c-0.4-0.7-0.9-1.2-1.5-1.6c-0.6-0.4-1.4-0.6-2.2-0.6c-0.8,0-1.5,0.2-2.2,0.6
			c-0.6,0.4-1.2,0.9-1.5,1.6c-0.4,0.7-0.6,1.5-0.6,2.3c0,0.9,0.2,1.7,0.6,2.3c0.4,0.7,0.9,1.2,1.5,1.6c0.6,0.4,1.4,0.6,2.2,0.6
			C181.1,63.6,181.9,63.4,182.5,63.1z"/>
		<path class="st2" d="M206.9,52.8v12.7h-2.1v-9.3l-4.8,7.8h-1l-4.7-7.9v9.3h-2.1V52.8h2.4l5,8.6l5.1-8.6H206.9z"/>
		<path class="st2" d="M223.1,54c0.9,0.5,1.7,1.3,2.2,2.2c0.5,0.9,0.8,2,0.8,3.2c0,1.2-0.3,2.3-0.8,3.3c-0.6,1-1.3,1.7-2.3,2.2
			c-1,0.5-2.1,0.8-3.4,0.8c-2.2,0-3.8-0.7-5-2.2c-1.2-1.5-1.8-3.6-1.8-6.3c0-2.6,0.5-4.7,1.6-6.1c1.1-1.5,2.7-2.5,4.9-2.9l5.8-1.3
			l0.3,2.1l-5.4,1.2c-1.7,0.4-2.9,1-3.7,1.9c-0.8,0.9-1.3,2.1-1.4,3.8c0.5-0.8,1.2-1.4,2.1-1.9c0.9-0.4,1.8-0.7,2.9-0.7
			C221.1,53.2,222.1,53.5,223.1,54z M221.6,63.2c0.6-0.4,1.1-0.9,1.5-1.5c0.4-0.6,0.5-1.4,0.5-2.2c0-1.3-0.4-2.3-1.2-3
			c-0.8-0.8-1.8-1.2-3-1.2c-1.2,0-2.3,0.4-3,1.2c-0.8,0.8-1.2,1.8-1.2,3c0,0.8,0.2,1.6,0.5,2.2c0.4,0.6,0.9,1.2,1.5,1.5
			c0.6,0.4,1.4,0.6,2.2,0.6C220.3,63.8,221,63.6,221.6,63.2z"/>
		<path class="st2" d="M231.3,52.8h2.3V62l7.8-9.3h2.1v12.7h-2.3v-9.3l-7.8,9.3h-2.1V52.8z"/>
		<path class="st2" d="M249.9,52.8h2.3v5.4h7.2v-5.4h2.3v12.7h-2.3v-5.3h-7.2v5.3h-2.3V52.8z"/>
		<path class="st2" d="M276.8,54c0.9,0.9,1.4,2.2,1.4,3.9v7.7h-2.2v-1.7c-0.4,0.6-0.9,1-1.6,1.4c-0.7,0.3-1.6,0.5-2.5,0.5
			c-1.4,0-2.6-0.3-3.4-1c-0.9-0.7-1.3-1.6-1.3-2.7s0.4-2,1.2-2.7s2.1-1,3.9-1h3.6v-0.5c0-1-0.3-1.8-0.9-2.3
			c-0.6-0.5-1.4-0.8-2.5-0.8c-0.8,0-1.5,0.1-2.2,0.4s-1.3,0.6-1.8,1l-1-1.7c0.7-0.5,1.4-0.9,2.4-1.2s1.9-0.4,2.9-0.4
			C274.6,52.7,275.9,53.1,276.8,54z M274.6,63.3c0.6-0.4,1.1-0.9,1.4-1.7v-1.8h-3.6c-2,0-2.9,0.7-2.9,2c0,0.6,0.2,1.1,0.7,1.5
			s1.2,0.6,2.1,0.6S273.9,63.7,274.6,63.3z"/>
		<path class="st2" d="M293.9,54.8h-4.7v10.7h-2.3V54.8h-4.7v-2h11.6V54.8z"/>
	</g>
	<line class="st3" x1="2" y1="41.5" x2="297" y2="41.5"/>
</g>
</svg>
